<svg xmlns="http://www.w3.org/2000/svg" xmlns:xlink="http://www.w3.org/1999/xlink" viewBox="0,0,256,256" width="50px" height="50px" fill-rule="nonzero"><g fill="#230101" fill-rule="nonzero" stroke="none" stroke-width="1" stroke-linecap="butt" stroke-linejoin="miter" stroke-miterlimit="10" stroke-dasharray="" stroke-dashoffset="0" font-family="none" font-weight="none" font-size="none" text-anchor="none" style="mix-blend-mode: normal"><path d="M0,256v-256h256v256z" id="bgRectangle"></path></g><g fill="#e51033" fill-rule="nonzero" stroke="none" stroke-width="1" stroke-linecap="butt" stroke-linejoin="miter" stroke-miterlimit="10" stroke-dasharray="" stroke-dashoffset="0" font-family="none" font-weight="none" font-size="none" text-anchor="none" style="mix-blend-mode: normal"><g transform="scale(5.12,5.12)"><path d="M22.9707,2.08984c-0.02022,0.00069 -0.04041,0.00199 -0.06055,0.00391c-11.71693,1.05567 -20.91016,10.9158 -20.91016,22.90625c0,12.69047 10.30953,23 23,23c12.69047,0 23,-10.30953 23,-23c0,-2.75869 -0.49112,-5.41508 -1.39062,-7.87305c-0.11051,-0.30247 -0.3599,-0.53323 -0.67003,-0.61996c-0.31013,-0.08673 -0.64305,-0.01881 -0.89442,0.18246l-5.05078,4.05078c-0.29728,0.23882 -0.43288,0.62592 -0.34961,0.99805c0.2338,1.04742 0.35547,2.14455 0.35547,3.26172c0,8.30003 -6.69997,15 -15,15c-8.30003,0 -15,-6.69997 -15,-15c0,-7.66082 5.72612,-13.9582 13.12305,-14.87695c0.50076,-0.06213 0.8768,-0.48758 0.87695,-0.99219v-6.04102c0.00009,-0.27036 -0.10929,-0.52924 -0.3032,-0.71764c-0.19392,-0.1884 -0.45584,-0.29025 -0.72609,-0.28236zM28.98047,2.37109c-0.54386,0.01068 -0.97946,0.45408 -0.98047,0.99805v4.63086v1.5v7.08398c-0.9461,-0.34062 -1.93724,-0.58398 -3,-0.58398c-4.95852,0 -9,4.04148 -9,9c0,4.95852 4.04148,9 9,9c4.95852,0 9,-4.04148 9,-9v-11.89258c1.23599,0.93646 2.37787,1.99137 3.27344,3.25977c0.19271,0.27264 0.50877,0.43114 0.84253,0.42251c0.33376,-0.00863 0.64121,-0.18324 0.81958,-0.46548l3.38867,-5.35937c0.23798,-0.37594 0.19897,-0.8639 -0.0957,-1.19727c-3.33389,-3.76238 -7.89173,-6.4394 -13.04883,-7.38086c-0.06572,-0.01185 -0.13246,-0.01708 -0.19922,-0.01562zM22,4.28906v4.04102c-7.94461,1.42263 -14,8.32232 -14,16.66992c0,9.37997 7.62003,17 17,17c9.37997,0 17,-7.62003 17,-17c0,-1.03734 -0.15127,-2.04361 -0.33203,-3.03711l3.4375,-2.75977c0.53619,1.85088 0.89453,3.77737 0.89453,5.79688c0,11.60953 -9.39047,21 -21,21c-11.60953,0 -21,-9.39047 -21,-21c0,-10.58566 7.83512,-19.24607 18,-20.71094zM30,4.67578c3.96052,0.96992 7.47799,3.0431 10.19922,5.90625l-2.24414,3.55078c-1.27282,-1.51307 -2.73242,-2.86122 -4.45312,-3.85742c-0.30941,-0.1795 -0.69112,-0.18008 -1.00107,-0.00152c-0.30995,0.17855 -0.50094,0.50905 -0.50088,0.86676v13.85938c0,3.87748 -3.12252,7 -7,7c-3.87748,0 -7,-3.12252 -7,-7c0,-3.87748 3.12252,-7 7,-7c1.2776,0 2.46388,0.34658 3.49805,0.94531c0.30971,0.17967 0.69184,0.18007 1.00192,0.00104c0.31008,-0.17903 0.50079,-0.51017 0.50003,-0.86822v-8.57812v-1.5z"></path></g></g></svg>